<?xml version="1.0" encoding="UTF-8"?>
<svg xmlns="http://www.w3.org/2000/svg" xmlns:xlink="http://www.w3.org/1999/xlink" width="30pt" height="30pt" viewBox="0 0 30 30" version="1.1">
    <g id="surface1">
    <path style=" stroke:none;fill-rule:nonzero;fill:#FFFFFF;fill-opacity:1;" d="M 4.59375 3.949219 C 3.570313 6.34375 3.984375 8.351563 4.347656 9.445313 C 2.875 11.023438 1.972656 13.199219 1.972656 16.097656 C 1.972656 23.269531 6.507813 25.65625 14.800781 25.65625 C 23.101563 25.65625 27.632813 23.269531 27.632813 16.097656 C 27.636719 13.300781 26.679688 11.117188 25.136719 9.507813 C 25.355469 9.144531 25.660156 8.433594 25.660156 7.09375 C 25.660156 5.074219 24.984375 3.949219 24.984375 3.949219 C 23.925781 3.949219 21.449219 4.371094 19.398438 6.414063 C 17.945313 6.050781 16.390625 5.921875 14.804688 5.921875 C 13.253906 5.921875 11.730469 6.007813 10.304688 6.320313 C 10.210938 6.234375 7.660156 3.949219 4.59375 3.949219 Z M 9.871094 13.324219 C 11.160156 13.335938 13.28125 13.816406 14.804688 13.816406 C 16.332031 13.816406 18.449219 13.335938 19.738281 13.324219 C 22.226563 13.324219 23.683594 15.300781 23.683594 17.734375 C 23.683594 21.734375 21.371094 23.683594 14.804688 23.683594 L 14.800781 23.683594 C 8.238281 23.683594 5.929688 21.734375 5.929688 17.734375 C 5.929688 15.300781 7.386719 13.324219 9.871094 13.324219 Z M 10.363281 16.777344 C 9.542969 16.777344 8.882813 17.660156 8.882813 18.75 C 8.882813 19.839844 9.542969 20.722656 10.363281 20.722656 C 11.179688 20.722656 11.84375 19.839844 11.84375 18.75 C 11.84375 17.660156 11.179688 16.777344 10.363281 16.777344 Z M 19.242188 16.777344 C 18.425781 16.777344 17.761719 17.660156 17.761719 18.75 C 17.761719 19.839844 18.425781 20.722656 19.242188 20.722656 C 20.0625 20.722656 20.722656 19.839844 20.722656 18.75 C 20.722656 17.660156 20.0625 16.777344 19.242188 16.777344 Z "/>
    </g>
</svg>
