<?xml version="1.0" encoding="UTF-8"?>
<svg xmlns="http://www.w3.org/2000/svg" xmlns:xlink="http://www.w3.org/1999/xlink" width="30pt" height="30pt" viewBox="0 0 30 30" version="1.1">
    <g id="surface1">
        <path style=" stroke:none;fill-rule:nonzero;fill:#0288D1;fill-opacity:1;" d="M 26.25 23.125 C 26.25 24.851563 24.851563 26.25 23.125 26.25 L 6.875 26.25 C 5.148438 26.25 3.75 24.851563 3.75 23.125 L 3.75 6.875 C 3.75 5.148438 5.148438 3.75 6.875 3.75 L 23.125 3.75 C 24.851563 3.75 26.25 5.148438 26.25 6.875 Z "/>
        <path style=" stroke:none;fill-rule:nonzero;fill:#FFFFFF;fill-opacity:1;" d="M 7.5 11.875 L 10.625 11.875 L 10.625 22.5 L 7.5 22.5 Z "/>
        <path style=" stroke:none;fill-rule:nonzero;fill:#FFFFFF;fill-opacity:1;" d="M 9.054688 10.625 L 9.035156 10.625 C 8.101563 10.625 7.5 9.929688 7.5 9.0625 C 7.5 8.175781 8.121094 7.5 9.070313 7.5 C 10.023438 7.5 10.609375 8.175781 10.625 9.0625 C 10.625 9.929688 10.023438 10.625 9.054688 10.625 Z "/>
        <path style=" stroke:none;fill-rule:nonzero;fill:#FFFFFF;fill-opacity:1;" d="M 22.5 22.5 L 19.375 22.5 L 19.375 16.8125 C 19.375 15.4375 18.609375 14.5 17.378906 14.5 C 16.441406 14.5 15.933594 15.132813 15.6875 15.746094 C 15.597656 15.964844 15.625 16.570313 15.625 16.875 L 15.625 22.5 L 12.5 22.5 L 12.5 11.875 L 15.625 11.875 L 15.625 13.511719 C 16.074219 12.8125 16.78125 11.875 18.585938 11.875 C 20.824219 11.875 22.5 13.28125 22.5 16.421875 Z "/>
    </g>
</svg>
