<?xml version="1.0" encoding="UTF-8"?>
<svg xmlns="http://www.w3.org/2000/svg" xmlns:xlink="http://www.w3.org/1999/xlink" width="20pt" height="20pt" viewBox="0 0 20 20" version="1.1">
    <g id="surface1">
        <path style=" stroke:none;fill-rule:nonzero;fill:#222222;fill-opacity:1;" d="M 18.714844 8.421875 L 16.367188 8.039063 C 16.230469 7.566406 16.042969 7.113281 15.808594 6.6875 L 17.179688 4.734375 C 17.289063 4.578125 17.269531 4.363281 17.132813 4.226563 L 15.589844 2.683594 C 15.453125 2.546875 15.234375 2.527344 15.078125 2.644531 L 13.15625 4.023438 C 12.726563 3.785156 12.265625 3.597656 11.792969 3.457031 L 11.386719 1.121094 C 11.351563 0.933594 11.1875 0.792969 10.996094 0.792969 L 8.8125 0.792969 C 8.617188 0.792969 8.449219 0.933594 8.421875 1.125 L 8.039063 3.449219 C 7.566406 3.585938 7.105469 3.773438 6.675781 4.011719 L 4.761719 2.640625 C 4.601563 2.527344 4.386719 2.546875 4.25 2.683594 L 2.707031 4.226563 C 2.570313 4.363281 2.550781 4.574219 2.660156 4.734375 L 4.011719 6.664063 C 3.769531 7.097656 3.578125 7.558594 3.441406 8.035156 L 1.125 8.421875 C 0.933594 8.453125 0.796875 8.617188 0.796875 8.8125 L 0.796875 10.996094 C 0.796875 11.1875 0.933594 11.351563 1.121094 11.386719 L 3.433594 11.796875 C 3.574219 12.273438 3.765625 12.734375 4.007813 13.167969 L 2.640625 15.078125 C 2.527344 15.238281 2.546875 15.453125 2.683594 15.589844 L 4.226563 17.136719 C 4.363281 17.269531 4.574219 17.289063 4.734375 17.179688 L 6.667969 15.828125 C 7.101563 16.0625 7.558594 16.253906 8.035156 16.390625 L 8.421875 18.714844 C 8.453125 18.90625 8.617188 19.046875 8.8125 19.046875 L 10.996094 19.046875 C 11.1875 19.046875 11.351563 18.910156 11.386719 18.71875 L 11.800781 16.382813 C 12.273438 16.242188 12.730469 16.054688 13.160156 15.8125 L 15.105469 17.179688 C 15.265625 17.289063 15.480469 17.269531 15.617188 17.136719 L 17.15625 15.589844 C 17.296875 15.453125 17.316406 15.234375 17.199219 15.078125 L 15.8125 13.152344 C 16.046875 12.722656 16.234375 12.269531 16.371094 11.796875 L 18.71875 11.386719 C 18.90625 11.351563 19.046875 11.1875 19.046875 10.996094 L 19.046875 8.8125 C 19.046875 8.617188 18.90625 8.453125 18.714844 8.421875 Z M 9.921875 12.699219 C 8.386719 12.699219 7.144531 11.457031 7.144531 9.921875 C 7.144531 8.386719 8.386719 7.144531 9.921875 7.144531 C 11.457031 7.144531 12.699219 8.386719 12.699219 9.921875 C 12.699219 11.457031 11.457031 12.699219 9.921875 12.699219 Z "/>
    </g>
</svg>
