<?xml version="1.0" encoding="UTF-8"?>
<svg xmlns="http://www.w3.org/2000/svg" xmlns:xlink="http://www.w3.org/1999/xlink" width="30pt" height="30pt" viewBox="0 0 30 30" version="1.1">
    <g id="surface1">
        <path style=" stroke:none;fill-rule:nonzero;fill:#03A9F4;fill-opacity:1;" d="M 26.25 7.769531 C 25.421875 8.132813 24.535156 8.378906 23.59375 8.496094 C 24.550781 7.929688 25.28125 7.023438 25.628906 5.957031 C 24.734375 6.480469 23.746094 6.867188 22.695313 7.066406 C 21.855469 6.175781 20.65625 5.625 19.328125 5.625 C 16.777344 5.625 14.710938 7.671875 14.710938 10.199219 C 14.710938 10.558594 14.753906 10.90625 14.832031 11.242188 C 10.996094 11.050781 7.59375 9.226563 5.316406 6.460938 C 4.917969 7.136719 4.691406 7.929688 4.691406 8.765625 C 4.691406 10.351563 5.503906 11.75 6.746094 12.574219 C 5.988281 12.550781 5.277344 12.339844 4.652344 12.003906 C 4.652344 12.015625 4.652344 12.035156 4.652344 12.054688 C 4.652344 14.277344 6.246094 16.125 8.355469 16.542969 C 7.96875 16.648438 7.5625 16.707031 7.140625 16.707031 C 6.84375 16.707031 6.550781 16.675781 6.269531 16.625 C 6.859375 18.4375 8.5625 19.765625 10.582031 19.804688 C 9.003906 21.027344 7.011719 21.761719 4.847656 21.761719 C 4.476563 21.761719 4.109375 21.742188 3.75 21.695313 C 5.792969 22.992188 8.21875 23.75 10.824219 23.75 C 19.316406 23.75 23.960938 16.777344 23.960938 10.730469 C 23.960938 10.53125 23.953125 10.332031 23.945313 10.136719 C 24.851563 9.5 25.632813 8.691406 26.25 7.769531 "/>
    </g>
</svg>
