<?xml version="1.0" encoding="UTF-8"?>
<svg xmlns="http://www.w3.org/2000/svg" xmlns:xlink="http://www.w3.org/1999/xlink" width="30pt" height="30pt" viewBox="0 0 30 30" version="1.1">
    <g id="surface1">
        <path style=" stroke:none;fill-rule:nonzero;fill:#FFFFFF;fill-opacity:1;" d="M 3.042969 27.0625 L 4.726563 20.917969 C 3.6875 19.117188 3.140625 17.078125 3.140625 14.988281 C 3.144531 8.445313 8.46875 3.125 15.007813 3.125 C 18.183594 3.125 21.160156 4.363281 23.402344 6.605469 C 25.640625 8.847656 26.875 11.828125 26.875 14.996094 C 26.871094 21.535156 21.546875 26.859375 15.007813 26.859375 L 15.003906 26.859375 C 13.019531 26.859375 11.066406 26.359375 9.332031 25.414063 Z "/>
        <path style=" stroke:none;fill-rule:nonzero;fill:#FFFFFF;fill-opacity:1;" d="M 3.042969 27.375 C 2.960938 27.375 2.878906 27.34375 2.820313 27.285156 C 2.742188 27.203125 2.710938 27.089844 2.742188 26.984375 L 4.390625 20.960938 C 3.367188 19.144531 2.828125 17.082031 2.828125 14.988281 C 2.832031 8.273438 8.296875 2.8125 15.007813 2.8125 C 18.265625 2.8125 21.324219 4.082031 23.625 6.382813 C 25.921875 8.683594 27.1875 11.742188 27.1875 14.996094 C 27.183594 21.710938 21.722656 27.171875 15.007813 27.171875 C 13.015625 27.171875 11.042969 26.679688 9.292969 25.75 L 3.121094 27.367188 C 3.09375 27.375 3.070313 27.375 3.042969 27.375 Z "/>
        <path style=" stroke:none;fill-rule:nonzero;fill:#CFD8DC;fill-opacity:1;" d="M 15.007813 3.125 C 18.183594 3.125 21.160156 4.363281 23.402344 6.605469 C 25.640625 8.847656 26.875 11.828125 26.875 14.996094 C 26.871094 21.535156 21.546875 26.859375 15.007813 26.859375 L 15.003906 26.859375 C 13.019531 26.859375 11.066406 26.359375 9.332031 25.414063 L 3.042969 27.0625 L 4.726563 20.917969 C 3.6875 19.117188 3.140625 17.078125 3.140625 14.988281 C 3.144531 8.445313 8.46875 3.125 15.007813 3.125 M 15.007813 26.859375 L 15.007813 26.859375 M 15.007813 26.859375 L 15.007813 26.859375 M 15.007813 2.5 C 8.125 2.5 2.519531 8.101563 2.515625 14.988281 C 2.515625 17.089844 3.046875 19.164063 4.054688 21 L 2.4375 26.898438 C 2.378906 27.117188 2.441406 27.34375 2.597656 27.503906 C 2.71875 27.625 2.878906 27.691406 3.042969 27.691406 C 3.09375 27.691406 3.148438 27.683594 3.203125 27.667969 L 9.253906 26.082031 C 11.023438 27 13.003906 27.484375 15.003906 27.484375 C 21.894531 27.484375 27.496094 21.882813 27.5 14.996094 C 27.5 11.660156 26.203125 8.523438 23.84375 6.164063 C 21.484375 3.800781 18.347656 2.5 15.007813 2.5 Z "/>
        <path style=" stroke:none;fill-rule:nonzero;fill:#40C351;fill-opacity:1;" d="M 21.984375 8.019531 C 20.121094 6.15625 17.648438 5.128906 15.011719 5.128906 C 9.570313 5.128906 5.148438 9.550781 5.144531 14.988281 C 5.144531 16.851563 5.664063 18.664063 6.652344 20.234375 L 6.886719 20.609375 L 5.890625 24.246094 L 9.625 23.265625 L 9.984375 23.480469 C 11.5 24.378906 13.234375 24.855469 15.003906 24.855469 L 15.007813 24.855469 C 20.445313 24.855469 24.871094 20.433594 24.871094 14.996094 C 24.871094 12.359375 23.847656 9.882813 21.984375 8.019531 Z "/>
        <path style=" stroke:none;fill-rule:evenodd;fill:#FFFFFF;fill-opacity:1;" d="M 12.042969 10.027344 C 11.820313 9.535156 11.585938 9.523438 11.375 9.515625 C 11.203125 9.507813 11.003906 9.507813 10.808594 9.507813 C 10.609375 9.507813 10.289063 9.582031 10.015625 9.878906 C 9.746094 10.175781 8.976563 10.894531 8.976563 12.351563 C 8.976563 13.8125 10.039063 15.222656 10.1875 15.417969 C 10.335938 15.617188 12.238281 18.707031 15.253906 19.894531 C 17.757813 20.882813 18.269531 20.6875 18.8125 20.636719 C 19.355469 20.585938 20.566406 19.917969 20.8125 19.226563 C 21.058594 18.535156 21.058594 17.941406 20.984375 17.816406 C 20.910156 17.695313 20.714844 17.621094 20.417969 17.472656 C 20.121094 17.324219 18.664063 16.605469 18.390625 16.507813 C 18.121094 16.40625 17.921875 16.359375 17.722656 16.65625 C 17.527344 16.953125 16.957031 17.621094 16.785156 17.816406 C 16.613281 18.015625 16.4375 18.039063 16.144531 17.890625 C 15.847656 17.742188 14.890625 17.429688 13.757813 16.421875 C 12.878906 15.636719 12.28125 14.664063 12.109375 14.367188 C 11.9375 14.070313 12.089844 13.910156 12.238281 13.761719 C 12.371094 13.628906 12.535156 13.417969 12.683594 13.242188 C 12.832031 13.070313 12.882813 12.945313 12.980469 12.75 C 13.078125 12.550781 13.03125 12.378906 12.957031 12.230469 C 12.882813 12.082031 12.304688 10.613281 12.042969 10.027344 Z "/>
    </g>
</svg>
